<?xml version="1.0" standalone="no"?>
<!DOCTYPE svg PUBLIC "-//W3C//DTD SVG 20010904//EN"
 "http://www.w3.org/TR/2001/REC-SVG-20010904/DTD/svg10.dtd">
<svg version="1.0" xmlns="http://www.w3.org/2000/svg"
 width="700.000000pt" height="700.000000pt" viewBox="0 0 700.000000 700.000000"
 preserveAspectRatio="xMidYMid meet">
<metadata>
Created by potrace 1.11, written by Peter Selinger 2001-2013
</metadata>
<g transform="translate(0.000000,700.000000) scale(0.100000,-0.100000)"
fill="#000000" stroke="none">
<path d="M3470 6431 c-6 -13 -10 -224 -10 -616 0 -392 4 -603 10 -616 6 -10
19 -19 30 -19 11 0 24 9 30 19 6 13 10 224 10 616 0 392 -4 603 -10 616 -6 10
-19 19 -30 19 -11 0 -24 -9 -30 -19z"/>
<path d="M2017 6053 c-4 -3 -7 -15 -7 -25 0 -19 589 -1051 616 -1078 17 -17
47 -4 52 24 3 14 -541 972 -600 1059 -18 25 -47 35 -61 20z"/>
<path d="M4923 6033 c-63 -91 -604 -1045 -601 -1060 2 -12 12 -18 32 -18 26 0
44 27 332 525 209 362 303 533 301 550 -3 37 -40 39 -64 3z"/>
<path d="M943 4974 c-3 -9 -2 -24 3 -32 6 -8 247 -152 537 -319 547 -316 573
-328 565 -266 -3 22 -71 64 -528 329 -289 167 -535 303 -548 304 -12 0 -25 -7
-29 -16z"/>
<path d="M5480 4686 c-499 -289 -525 -305 -525 -332 0 -20 6 -30 18 -32 14 -3
969 538 1060 601 36 24 34 61 -3 64 -17 2 -189 -92 -550 -301z"/>
<path d="M3370 4664 c-200 -37 -260 -55 -381 -114 -234 -113 -426 -305 -539
-539 -85 -175 -115 -309 -115 -516 1 -196 30 -331 111 -502 109 -230 332 -451
558 -553 l66 -30 0 -124 c0 -122 0 -124 -24 -130 -26 -6 -39 -28 -30 -51 4 -8
17 -18 30 -21 17 -4 24 -13 24 -29 0 -16 -7 -25 -24 -29 -40 -10 -44 -59 -6
-71 10 -3 56 -44 101 -90 81 -83 84 -85 130 -85 45 0 48 -2 79 -50 l32 -50
118 0 118 0 32 50 c31 48 34 50 79 50 45 0 49 3 124 78 71 72 77 81 77 119 0
35 3 42 21 45 31 4 46 32 30 52 -8 9 -22 16 -32 16 -29 0 -27 57 2 62 31 4 46
32 30 52 -8 9 -22 16 -32 16 -17 0 -19 9 -19 95 l0 95 66 30 c327 148 576 469
656 845 19 93 17 343 -5 445 -51 236 -155 429 -322 595 -163 164 -357 270
-585 320 -72 16 -319 28 -370 19z m350 -90 c309 -64 587 -268 737 -542 174
-317 186 -678 32 -1001 -114 -241 -285 -409 -533 -527 -52 -24 -97 -51 -100
-60 -3 -9 -6 -45 -6 -80 l0 -64 -350 0 -350 0 0 64 c0 35 -3 71 -6 80 -3 9
-49 36 -101 61 -243 115 -407 275 -523 510 -67 135 -96 234 -111 381 -12 111
-1 257 27 368 111 441 483 769 936 826 91 11 250 4 348 -16z m130 -2354 c0 -5
-13 -10 -29 -10 -29 0 -550 -36 -628 -43 -43 -5 -43 -4 -43 29 l0 34 350 0
c227 0 350 -4 350 -10z m0 -110 c0 -26 -3 -30 -29 -30 -29 0 -550 -36 -628
-43 -42 -4 -43 -4 -43 24 0 16 6 29 13 30 6 0 149 11 317 23 411 31 370 32
370 -4z m0 -127 c0 -20 -15 -43 -52 -80 l-52 -53 -246 0 -246 0 -54 55 c-31
32 -48 55 -40 56 8 0 150 11 315 23 406 32 375 32 375 -1z m-262 -215 c-3 -9
-30 -13 -88 -13 -58 0 -85 4 -87 13 -4 9 18 12 87 12 69 0 91 -3 88 -12z"/>
<path d="M568 3529 c-24 -13 -23 -46 2 -59 13 -7 215 -10 630 -8 513 3 612 5
619 17 10 16 3 42 -13 53 -17 12 -1218 9 -1238 -3z"/>
<path d="M5186 3524 c-9 -8 -16 -19 -16 -24 0 -5 7 -16 16 -24 14 -14 84 -16
620 -16 398 0 612 4 625 10 10 6 19 19 19 30 0 11 -9 24 -19 30 -13 6 -227 10
-625 10 -536 0 -606 -2 -620 -16z"/>
<path d="M1499 2387 c-278 -161 -518 -300 -533 -310 -33 -22 -33 -60 1 -65 23
-3 1057 585 1080 615 15 20 0 53 -25 53 -9 0 -245 -132 -523 -293z"/>
<path d="M4949 2664 c-8 -10 -10 -21 -3 -31 5 -8 243 -150 529 -316 532 -308
576 -329 583 -281 2 15 -6 28 -25 41 -66 46 -1041 603 -1055 603 -9 0 -21 -7
-29 -16z"/>
</g>
</svg>
